<svg xmlns="http://www.w3.org/2000/svg" xmlns:xlink="http://www.w3.org/1999/xlink" viewBox="0 0 251.39 267.61"><defs><style>.cls-1{fill:url(#Degradado_sin_nombre_28);}</style><linearGradient id="Degradado_sin_nombre_28" x1="-14.21" y1="57.71" x2="290.01" y2="223.17" gradientUnits="userSpaceOnUse"><stop offset="0" stop-color="#c0ffaa"/><stop offset="1" stop-color="#55ffe4"/></linearGradient></defs><title>hexagonoIzq</title><g id="Capa_2" data-name="Capa 2"><g id="Capa_1-2" data-name="Capa 1"><path class="cls-1" d="M216.2,226.1l-53.81,31.65a71.37,71.37,0,0,1-71.37.58L36.7,227.56A71.37,71.37,0,0,1,.51,166L0,103.61a71.37,71.37,0,0,1,35.19-62.1L89,9.86a71.37,71.37,0,0,1,71.37-.59l54.32,30.78a71.37,71.37,0,0,1,36.19,61.52l.51,62.43A71.39,71.39,0,0,1,216.2,226.1Z"/></g></g></svg>