<svg xmlns="http://www.w3.org/2000/svg" xmlns:xlink="http://www.w3.org/1999/xlink" viewBox="0 0 282.55 288.74"><defs><style>.cls-1{fill:url(#Degradado_sin_nombre_22);}</style><linearGradient id="Degradado_sin_nombre_22" x1="242.8" y1="-15.33" x2="61.09" y2="270.49" gradientUnits="userSpaceOnUse"><stop offset="0" stop-color="#c0ffaa"/><stop offset="1" stop-color="#55ffe4"/></linearGradient></defs><title>Recurso 1</title><g id="Capa_2" data-name="Capa 2"><g id="Capa_1-2" data-name="Capa 1"><path class="cls-1" d="M224.77,258,146,285.29a62.45,62.45,0,0,1-61.34-11.8l-63-54.59a62.47,62.47,0,0,1-20.45-59L16.88,78A62.48,62.48,0,0,1,57.77,30.75L136.58,3.44a62.5,62.5,0,0,1,61.34,11.8L261,69.84a62.46,62.46,0,0,1,20.45,59l-15.75,81.9A62.49,62.49,0,0,1,224.77,258Z"/></g></g></svg>